<?xml version="1.0" standalone="no"?><!DOCTYPE svg PUBLIC "-//W3C//DTD SVG 1.1//EN" "http://www.w3.org/Graphics/SVG/1.1/DTD/svg11.dtd"><svg t="1614689796312" class="icon" viewBox="0 0 1024 1024" version="1.1" xmlns="http://www.w3.org/2000/svg" p-id="2767" width="128" height="128" xmlns:xlink="http://www.w3.org/1999/xlink"><defs><style type="text/css"></style></defs><path d="M426.542817 0.599756h170.530695C710.527404-1.899228 833.477436 32.886635 911.045912 112.954095c80.167419 77.568476 114.853323 200.518508 112.454298 313.972399v170.530696c2.399025 113.453892-32.286878 236.403924-112.454298 313.972399-77.568476 80.167419-200.518508 114.853323-313.9724 112.454298H426.542817c-113.453892 2.399025-236.403924-32.286878-313.9724-112.454298C32.402998 833.961073-2.282906 711.011041 0.116119 597.557149V427.026454C-2.282906 313.472603 32.402998 190.52257 112.570417 112.954095 190.138893 32.886635 313.088925-1.899228 426.542817 0.599756z" fill="#007bff" p-id="2768" data-spm-anchor-id="a313x.7781069.0.i6" class="selected"></path><path d="M112.570417 112.954095C36.90117 186.224317 1.715469 299.878128 0.116119 407.834254c137.943939 0 249.79848-111.954501 249.798481-249.89844 0-42.782613-10.795613-83.066241-29.687935-118.251942-40.583507 17.892728-77.568476 42.182857-107.656248 73.270223z" fill="#FFFFFF" opacity=".5" p-id="2769" data-spm-anchor-id="a313x.7781069.0.i7" class=""></path><path d="M723.822001 773.085813h-309.874065c-90.063398 0-163.033742-72.970344-163.033743-163.033742V463.311707c0-117.052429 94.861448-212.013836 212.013837-212.013836H560.788259c117.052429 0 212.013836 94.861448 212.013836 212.013836v260.893971c-0.099959 26.989031-21.991063 48.880135-48.980094 48.880135zM582.279525 460.912682c-1.899228 0-4.997969 0.099959-9.296222 0.299878 3.998375-12.7948 5.997563-20.191794 5.997562-22.190981 0-3.598538-1.399431-6.497359-4.198294-8.796425-2.798863-2.299066-5.897603-3.498578-9.49614-3.498578-6.197481 0-10.495734 3.398619-12.694841 10.295815-2.998781 9.396181-5.397806 17.59285-7.197075 24.490047h-36.685091c3.1987-9.296222 4.698091-15.793581 4.698091-19.492078 0-8.196669-4.498172-12.295003-13.594476-12.295003-4.198294 0-8.196669 4.298253-11.995125 12.894759l-6.797237 19.092241c-14.893947 0.499797-26.089397 0.799675-33.486391 0.999594-8.396588 0.899634-12.594881 5.097928-12.594882 12.694841 0 3.698497 1.299472 6.697278 3.898416 9.096303 2.598944 2.299066 5.797644 3.498578 9.5961 3.498578 1.899228 0 5.997563 0.099959 12.195044 0.199919 5.097928 0.099959 9.196263 0.099959 12.195044 0-3.398619 9.796019-8.496547 22.990656-15.193825 39.683872-14.694028-0.099959-22.3909-0.099959-23.090616 0-7.696872 0.699716-11.495328 4.498172-11.495328 11.395369 0 3.398619 1.099553 6.3974 3.398619 9.296222 2.498984 3.1987 5.697684 4.698091 9.5961 4.698091H447.834164c-7.097116 18.592444-10.595694 28.388463-10.595694 29.288097 0 3.598538 1.399431 6.497359 4.198294 8.796425 2.798863 2.299066 5.997563 3.498578 9.496141 3.498578 6.197481 0 10.295816-2.698903 11.995125-8.09671 2.698903-8.296628 7.097116-19.492078 12.994719-33.48639h42.082897c-5.297847 17.093053-7.99675 27.388869-7.99675 30.787487 0 7.197075 3.798456 10.795613 11.395369 10.795613 8.696466 0 13.994313-4.098334 15.89354-12.295003 3.598538-13.394556 6.297441-23.090616 8.09671-29.088179 3.898416 0.099959 8.896384 0.099959 14.893947 0 8.396588-0.099959 13.394556-0.099959 14.993906-0.099959 3.598538 0 6.697278-1.099553 9.296222-3.1987 2.498984-2.099147 3.798456-4.997969 3.798456-8.496547 0-9.096303-6.997156-13.694434-21.091428-13.694435H552.791509c5.897603-17.892728 10.295816-31.187325 13.294597-39.98375h4.398212c2.099147 0.099959 3.498578 0.099959 4.398213 0.099959 8.196669 0 13.694434-0.499797 16.793175-1.399431 5.997563-1.899228 9.096303-6.097522 9.096303-12.394962-0.099959-9.096303-6.297441-13.394556-18.492484-13.394557z m-96.360839 66.772863l14.993907-39.883791h37.184887l-12.7948 39.883791h-39.383994z" fill="#FFFFFF" p-id="2770"></path><path d="M642.754947 745.097188c0 9.396181 0.799675 18.592444 2.498984 27.588788h78.56807c26.989031 0 48.880135-21.891103 48.880135-48.880135V593.058977c-73.67006 11.495328-129.947189 75.26941-129.947189 152.038211z" fill="#775CFF" opacity=".5" p-id="2771"></path></svg>