<?xml version="1.0" standalone="no"?><!DOCTYPE svg PUBLIC "-//W3C//DTD SVG 1.1//EN" "http://www.w3.org/Graphics/SVG/1.1/DTD/svg11.dtd"><svg t="1614766077321" class="icon" viewBox="0 0 1024 1024" version="1.1" xmlns="http://www.w3.org/2000/svg" p-id="4598" xmlns:xlink="http://www.w3.org/1999/xlink" width="200" height="200"><defs><style type="text/css"></style></defs><path d="M0 0h1024v1024H0z" fill="#007bff" p-id="4599" data-spm-anchor-id="a313x.7781069.0.i35" class="selected"></path><path d="M169.4208 511.9744c0-188.5184 152.8064-341.2992 341.3248-341.2992 188.544 0 341.3504 152.7808 341.3504 341.3504 0 188.5184-152.832 341.2992-341.3504 341.2992-71.68 0-138.1888-22.272-193.1264-60.0576l-168.2944 31.744 67.584-140.0064a339.6352 339.6352 0 0 1-47.488-173.056z m362.88 42.7008l-19.328 53.1968a16 16 0 1 0 30.0544 10.9312l23.3216-64.128h38.0928a16 16 0 0 0 0-32h-26.4448l27.136-74.6752h41.984a16 16 0 0 0 0-32h-30.336l11.5968-31.872a16 16 0 1 0-30.08-10.9312l-15.5648 42.8032h-72.6272l11.5968-31.872a16 16 0 0 0-30.08-10.9312l-15.5648 42.8032h-33.3824a16 16 0 1 0 0 32h21.76l-27.136 74.6752h-37.2992a16 16 0 1 0 0 32h25.6512l-19.3536 53.1968a16 16 0 0 0 30.08 10.9312l23.296-64.128h72.6272z m11.648-32H471.296l27.136-74.6752h72.6272l-27.136 74.6752z" fill="#FFFFFF" p-id="4600"></path></svg>