<?xml version="1.0" encoding="utf-8"?>
<!-- Generator: Adobe Illustrator 25.1.0, SVG Export Plug-In . SVG Version: 6.00 Build 0)  -->
<svg version="1.1" id="_x37C_" xmlns="http://www.w3.org/2000/svg" xmlns:xlink="http://www.w3.org/1999/xlink" x="0px" y="0px"
	 viewBox="0 0 595.3 841.9" style="enable-background:new 0 0 595.3 841.9;" xml:space="preserve">
<style type="text/css">
	.st0{fill-rule:evenodd;clip-rule:evenodd;fill:#FFFFFF;}
</style>
<g>
	<g>
		<path class="st0" d="M297.6,320.9c55.2,0,100,44.8,100,100c0,49.5-36,90.6-83.1,98.6v-5.8c44-7.9,77.5-46.5,77.5-92.8
			c0-52.1-42.2-94.3-94.3-94.3c-4,0-7.9,0.2-11.8,0.7v-5.7C289.7,321.2,293.7,320.9,297.6,320.9L297.6,320.9z M271.6,330.3v-5.9
			c-42.6,11.5-74,50.4-74,96.6c0,55.2,44.8,100,100,100c0.9,0,1.7,0,2.6,0v-5.7c-0.9,0-1.7,0-2.6,0c-52.1,0-94.3-42.2-94.3-94.3
			C203.3,377.9,232.2,341.6,271.6,330.3z"/>
		<g>
			<rect x="314.5" y="437.5" class="st0" width="6.2" height="80"/>
			<rect x="284.1" y="435.2" class="st0" width="6.2" height="27.5"/>
			<rect x="345" y="435.2" class="st0" width="6.2" height="27.5"/>
			<rect x="284.1" y="435" class="st0" width="67.1" height="5.1"/>
			<rect x="284.5" y="446.4" class="st0" width="66.1" height="5.1"/>
			<rect x="284.1" y="457.8" class="st0" width="67.1" height="5.1"/>
			<rect x="284.5" y="413.8" class="st0" width="32" height="5.1"/>
			<rect x="319.1" y="413.8" class="st0" width="32" height="5.1"/>
			<rect x="284.5" y="423.6" class="st0" width="32" height="5.1"/>
			<rect x="319.1" y="423.8" class="st0" width="32" height="5.1"/>
			<g>
				<rect x="259.1" y="430.2" class="st0" width="6.2" height="57.5"/>
				<rect x="244.1" y="414" class="st0" width="36.2" height="6.2"/>
				<rect x="244.1" y="425.4" class="st0" width="36.2" height="6.2"/>
				<rect x="244.1" y="440.8" class="st0" width="33" height="6.2"/>
				<rect x="244.1" y="440.8" class="st0" width="6.2" height="27.7"/>
			</g>
			<rect x="284.5" y="413.8" class="st0" width="6.2" height="14.1"/>
			<rect x="319.1" y="413.8" class="st0" width="6.2" height="14.1"/>
			<rect x="310.4" y="413.8" class="st0" width="6.2" height="14.7"/>
			<rect x="345" y="413.8" class="st0" width="6.2" height="14.7"/>
			<rect x="265.5" y="396.4" class="st0" width="72" height="7.1"/>
			<rect x="264.5" y="326.6" class="st0" width="7.1" height="77"/>
			<rect x="344.1" y="359" class="st0" width="7.1" height="44.6"/>
			<rect x="287.2" y="358.8" class="st0" width="7.1" height="25.5"/>
			<rect x="244.1" y="359.1" class="st0" width="7.1" height="44.6"/>
			<rect x="284.1" y="475.7" class="st0" width="67.1" height="5.1"/>
		</g>
	</g>
	<path class="st0" d="M381.6,330.8v-8.6h-3.2V321h7.7v1.1h-3.2v8.6H381.6L381.6,330.8z M388.1,330.8v-9.7h1.9l2.3,6.9
		c0.2,0.6,0.4,1.1,0.5,1.4c0.1-0.4,0.3-0.9,0.5-1.6l2.3-6.7h1.7v9.7h-1.2v-8.1l-2.8,8.1h-1.2l-2.8-8.3v8.3H388.1z"/>
</g>
</svg>
