<?xml version="1.0" encoding="utf-8"?>
<!-- Generator: Adobe Illustrator 25.1.0, SVG Export Plug-In . SVG Version: 6.00 Build 0)  -->
<svg version="1.1" id="_x37C_" xmlns="http://www.w3.org/2000/svg" xmlns:xlink="http://www.w3.org/1999/xlink" x="0px" y="0px"
	 viewBox="0 0 595.28 841.89" style="enable-background:new 0 0 595.28 841.89;" xml:space="preserve">
<style type="text/css">
	.st0{fill-rule:evenodd;clip-rule:evenodd;fill:#FFFFFF;}
</style>
<g>
	<path class="st0" d="M297.64,135.86c157.42,0,285.08,127.66,285.08,285.08c0,141.04-102.49,258.18-237.04,281.03v-16.45
		c125.55-22.66,220.82-132.51,220.82-264.58c0-148.47-120.4-268.87-268.87-268.87c-11.37,0-22.58,0.71-33.58,2.09v-16.32
		C275.07,136.54,286.27,135.86,297.64,135.86L297.64,135.86z M223.46,162.45v-16.81C102,178.3,12.56,289.19,12.56,420.94
		c0,157.42,127.66,285.08,285.08,285.08c2.49,0,4.97-0.03,7.45-0.1v-16.22c-2.47,0.07-4.96,0.11-7.45,0.11
		c-148.47,0-268.87-120.4-268.87-268.87C28.77,298.21,111.06,194.66,223.46,162.45z"/>
	<g>
		<rect x="345.65" y="468.19" class="st0" width="17.56" height="228.04"/>
		<rect x="259.1" y="461.51" class="st0" width="17.56" height="78.47"/>
		<rect x="432.69" y="461.51" class="st0" width="17.56" height="78.47"/>
		<rect x="259.1" y="461" class="st0" width="191.16" height="14.4"/>
		<rect x="260.23" y="493.55" class="st0" width="188.41" height="14.4"/>
		<rect x="259.1" y="526.06" class="st0" width="191.16" height="14.4"/>
		<rect x="260.23" y="400.69" class="st0" width="91.31" height="14.4"/>
		<rect x="358.94" y="400.69" class="st0" width="91.31" height="14.4"/>
		<rect x="260.23" y="428.65" class="st0" width="91.31" height="14.4"/>
		<rect x="358.94" y="429.13" class="st0" width="91.31" height="14.4"/>
		<g>
			<rect x="187.7" y="447.46" class="st0" width="17.56" height="164"/>
			<rect x="144.89" y="401.05" class="st0" width="103.19" height="17.56"/>
			<rect x="144.89" y="433.66" class="st0" width="103.19" height="17.56"/>
			<rect x="144.89" y="477.57" class="st0" width="94.2" height="17.56"/>
			<rect x="144.89" y="477.57" class="st0" width="17.56" height="78.91"/>
		</g>
		<rect x="260.23" y="400.69" class="st0" width="17.56" height="40.3"/>
		<rect x="358.94" y="400.69" class="st0" width="17.56" height="40.3"/>
		<rect x="333.97" y="400.69" class="st0" width="17.56" height="41.98"/>
		<rect x="432.69" y="400.69" class="st0" width="17.56" height="41.98"/>
		<rect x="206" y="351.1" class="st0" width="205.34" height="20.3"/>
		<rect x="203.12" y="151.99" class="st0" width="20.35" height="219.42"/>
		<rect x="429.95" y="244.4" class="st0" width="20.3" height="127.03"/>
		<rect x="267.88" y="243.89" class="st0" width="20.3" height="72.78"/>
		<rect x="144.93" y="244.58" class="st0" width="20.3" height="127.08"/>
		<rect x="259.12" y="576.96" class="st0" width="191.16" height="14.4"/>
	</g>
</g>
<path class="st0" d="M536.97,163.84v-24.42h-9.12v-3.25h21.9v3.25h-9.12v24.42H536.97L536.97,163.84z M555.61,163.84v-27.66h5.49
	l6.54,19.58c0.61,1.82,1.04,3.19,1.32,4.1c0.32-1,0.81-2.49,1.48-4.44l6.66-19.24h4.9v27.66h-3.52V140.7l-8.07,23.14h-3.3
	l-7.98-23.57v23.57H555.61z"/>
</svg>
