<?xml version="1.0" encoding="utf-8"?>
<!-- Generator: Adobe Illustrator 25.0.0, SVG Export Plug-In . SVG Version: 6.00 Build 0)  -->
<svg version="1.1" id="图层_1" xmlns="http://www.w3.org/2000/svg" xmlns:xlink="http://www.w3.org/1999/xlink" x="0px" y="0px"
	 viewBox="0 0 48 48" style="enable-background:new 0 0 48 48;" xml:space="preserve">
<style type="text/css">
	.st0{fill:#007BFF;}
</style>
<g>
	<path d="M24,42.83c-2.54,0-5.01-0.5-7.33-1.48c-2.24-0.95-4.25-2.3-5.98-4.03s-3.09-3.74-4.03-5.98c-0.98-2.32-1.48-4.79-1.48-7.33
		s0.5-5.01,1.48-7.33c0.95-2.25,2.3-4.26,4.03-5.99s3.74-3.09,5.98-4.03c2.32-0.98,4.79-1.48,7.33-1.48s5.01,0.5,7.33,1.48
		c2.24,0.95,4.25,2.3,5.98,4.03s3.09,3.74,4.03,5.98c0.98,2.32,1.48,4.79,1.48,7.33s-0.5,5.01-1.48,7.33
		c-0.95,2.24-2.3,4.25-4.03,5.98s-3.74,3.09-5.98,4.03C29.01,42.33,26.54,42.83,24,42.83L24,42.83z M24,7.11
		C14.69,7.11,7.11,14.69,7.11,24S14.69,40.89,24,40.89S40.89,33.31,40.89,24S33.31,7.11,24,7.11z"/>
	<path d="M24,36.47c-3.24,0-6.29-1.26-8.58-3.56c-2.29-2.29-3.56-5.34-3.56-8.58c0-3.24,1.26-6.28,3.55-8.58s5.33-3.56,8.57-3.56
		c0.53,0,0.97,0.43,0.97,0.97c0,0.53-0.43,0.97-0.97,0.97c-5.61,0.01-10.18,4.59-10.18,10.21c0,5.63,4.58,10.21,10.21,10.21
		s10.21-4.58,10.21-10.21v-0.02c0-0.53,0.44-0.97,0.97-0.97c0.53,0,0.97,0.44,0.97,0.97v0.02c0,3.24-1.26,6.29-3.56,8.58
		C30.29,35.21,27.24,36.47,24,36.47z"/>
	<path class="st0" d="M24,29.28h-0.02c-0.53-0.01-0.96-0.44-0.96-0.97c0-0.53,0.44-0.97,0.97-0.97H24c1.82,0,3.29-1.48,3.29-3.3
		c0-1.82-1.48-3.3-3.3-3.3s-3.3,1.48-3.3,3.3c0,0.08,0.01,0.16,0.01,0.24c0.04,0.53-0.36,0.99-0.9,1.04
		c-0.53,0.04-0.99-0.36-1.04-0.9c-0.01-0.13-0.02-0.26-0.02-0.38c0-2.88,2.35-5.23,5.23-5.23s5.23,2.35,5.23,5.23
		S26.88,29.28,24,29.28L24,29.28z"/>
</g>
</svg>
