<?xml version="1.0" encoding="utf-8"?>
<!-- Generator: Adobe Illustrator 25.0.0, SVG Export Plug-In . SVG Version: 6.00 Build 0)  -->
<svg version="1.1" id="图层_1" xmlns="http://www.w3.org/2000/svg" xmlns:xlink="http://www.w3.org/1999/xlink" x="0px" y="0px"
	 viewBox="0 0 40 40" style="enable-background:new 0 0 40 40;" xml:space="preserve">
<style type="text/css">
	.st0{fill:#007BFF;}
</style>
<g>
	<path d="M20,33.55c-1.83,0-3.6-0.36-5.27-1.07c-1.61-0.68-3.06-1.66-4.31-2.9c-1.25-1.25-2.22-2.69-2.9-4.3
		C6.81,23.61,6.45,21.83,6.45,20s0.36-3.6,1.07-5.27c0.68-1.62,1.66-3.07,2.9-4.31s2.7-2.22,4.31-2.9C16.4,6.81,18.17,6.45,20,6.45
		c1.83,0,3.6,0.36,5.27,1.07c1.61,0.68,3.06,1.66,4.31,2.9c1.25,1.25,2.22,2.7,2.9,4.31c0.71,1.67,1.07,3.45,1.07,5.27
		s-0.36,3.6-1.07,5.27c-0.68,1.61-1.66,3.06-2.9,4.31c-1.25,1.25-2.7,2.22-4.31,2.9C23.6,33.2,21.83,33.55,20,33.55L20,33.55z
		 M20,7.84C13.29,7.84,7.84,13.29,7.84,20S13.29,32.16,20,32.16S32.16,26.71,32.16,20S26.71,7.84,20,7.84z"/>
	<path d="M20,28.98c-2.34,0-4.53-0.91-6.18-2.56c-1.65-1.65-2.56-3.84-2.56-6.18c0-2.33,0.91-4.52,2.56-6.18s3.84-2.56,6.17-2.56
		c0.38,0,0.7,0.31,0.7,0.7c0,0.38-0.31,0.7-0.7,0.7c-4.04,0.01-7.33,3.31-7.33,7.35c0,4.05,3.29,7.35,7.35,7.35s7.35-3.29,7.35-7.35
		v-0.02c0-0.38,0.31-0.7,0.7-0.7c0.38,0,0.7,0.31,0.7,0.7v0.02c0,2.34-0.91,4.53-2.56,6.18C24.53,28.07,22.34,28.98,20,28.98z"/>
	<path class="st0" d="M20,23.8h-0.01c-0.38,0-0.69-0.31-0.69-0.7c0-0.38,0.31-0.7,0.7-0.7H20c1.31,0,2.37-1.07,2.37-2.37
		c0-1.31-1.06-2.37-2.37-2.37c-1.31,0-2.37,1.06-2.37,2.37c0,0.06,0,0.12,0.01,0.17c0.03,0.38-0.26,0.72-0.65,0.75
		c-0.38,0.03-0.72-0.26-0.75-0.65c-0.01-0.09-0.01-0.19-0.01-0.27c0-2.08,1.69-3.77,3.77-3.77c2.08,0,3.77,1.69,3.77,3.77
		S22.08,23.8,20,23.8L20,23.8z"/>
</g>
</svg>
